<svg width="200" height="200" viewBox="0 0 200 200" fill="none" xmlns="http://www.w3.org/2000/svg">
  <path d="M0 0h40v40H0z M80 0h40v40H80z M160 0h40v40h-40z" fill="white" fill-opacity="0.05"/>
  <path d="M40 40h40v40H40z M120 40h40v40h-40z" fill="white" fill-opacity="0.05"/>
  <path d="M0 80h40v40H0z M80 80h40v40H80z M160 80h40v40h-40z" fill="white" fill-opacity="0.05"/>
  <path d="M40 120h40v40H40z M120 120h40v40h-40z" fill="white" fill-opacity="0.05"/>
  <path d="M0 160h40v40H0z M80 160h40v40H80z M160 160h40v40h-40z" fill="white" fill-opacity="0.05"/>
</svg> 